<?xml version="1.0" standalone="no"?>
<!DOCTYPE svg PUBLIC "-//W3C//DTD SVG 20010904//EN"
 "http://www.w3.org/TR/2001/REC-SVG-20010904/DTD/svg10.dtd">
<svg version="1.0" xmlns="http://www.w3.org/2000/svg"
 width="215.000000pt" height="215.000000pt" viewBox="0 0 215.000000 215.000000"
 preserveAspectRatio="xMidYMid meet">
<metadata>
Created by potrace 1.14, written by Peter Selinger 2001-2017
</metadata>
<g transform="translate(0.000000,215.000000) scale(0.100000,-0.100000)"
fill="#000000" stroke="none">
<path d="M913 2136 c-119 -23 -303 -94 -303 -118 0 -5 -4 -7 -9 -4 -4 3 -16
-3 -26 -14 -10 -11 -24 -20 -30 -20 -7 0 -16 -7 -19 -16 -4 -9 -9 -14 -12 -11
-10 10 -164 -153 -207 -220 -83 -129 -129 -247 -152 -388 -35 -214 -1 -430 96
-620 42 -81 45 -82 141 -35 63 31 107 72 188 177 37 48 101 93 131 93 7 0 0
-14 -16 -30 -39 -41 -22 -38 31 5 26 22 47 50 55 73 13 41 37 74 50 67 4 -3
11 0 14 6 4 5 13 8 21 5 7 -3 16 -1 19 4 3 5 13 9 23 8 16 0 64 7 109 16 99
20 96 123 -6 176 -18 9 -72 11 -215 6 -219 -8 -242 -2 -283 70 -28 49 -29 65
-3 36 34 -36 72 -50 137 -49 61 1 62 1 56 25 -4 17 -2 23 6 18 6 -4 11 -2 11
4 0 6 4 9 9 6 5 -3 14 1 21 10 7 8 19 13 27 10 7 -3 13 -2 13 3 0 5 14 14 30
21 35 15 34 10 15 46 -27 52 -20 89 23 121 20 15 40 32 43 36 3 5 9 8 13 8 3
-1 7 -1 9 0 22 7 49 11 82 13 22 1 45 5 51 8 6 4 21 6 33 3 11 -2 21 1 21 7 0
5 7 8 15 4 8 -3 15 0 15 6 0 6 3 9 6 5 9 -9 70 58 84 94 15 35 30 23 30 -26 0
-38 -49 -113 -64 -98 -3 4 -6 0 -6 -7 0 -7 -3 -10 -6 -7 -4 3 -15 2 -26 -4
-11 -6 -28 -12 -39 -15 -114 -25 -163 -49 -174 -84 -10 -33 20 -58 99 -81 110
-33 158 -66 205 -141 20 -33 27 -38 61 -38 21 0 41 4 44 8 5 9 34 8 106 -2 42
-6 47 -5 85 31 22 21 44 38 48 38 4 0 12 7 17 15 5 8 10 11 10 7 0 -5 7 -1 16
7 8 9 19 14 24 11 5 -3 10 1 13 7 2 7 7 10 11 7 3 -3 -22 -37 -56 -75 -130
-142 -115 -131 -207 -139 -103 -9 -142 -32 -154 -90 -11 -51 -30 -90 -42 -88
-6 1 -16 -4 -24 -10 -8 -7 -62 -37 -120 -67 -89 -46 -109 -61 -124 -92 -14
-29 -16 -41 -7 -58 16 -29 47 -60 54 -53 6 6 10 -13 7 -31 -1 -5 6 -5 16 -1
20 9 113 9 158 1 29 -5 44 -8 95 -20 50 -12 184 -34 210 -35 8 0 96 -3 195 -7
l180 -6 26 48 c40 73 87 215 104 312 52 297 -46 629 -246 832 -57 58 -137 130
-145 130 -3 0 -20 11 -37 24 -50 39 -175 94 -262 117 -103 26 -292 34 -392 15z
m393 -115 c-3 -9 -8 -38 -12 -65 -9 -67 -62 -118 -65 -63 -1 17 -2 18 -6 4 -7
-26 -23 -10 -23 24 0 42 37 104 61 104 4 0 10 3 13 6 13 13 36 5 32 -10z
m-280 -83 c73 -2 82 -5 113 -33 29 -26 69 -85 57 -85 -2 0 -24 11 -47 25 -24
14 -55 25 -69 24 -21 0 -18 -3 20 -24 25 -13 56 -33 69 -44 l25 -19 -33 -20
c-21 -13 -43 -18 -60 -15 -14 3 -33 6 -41 7 -17 1 -21 4 -74 48 -43 36 -66 81
-66 129 0 26 3 29 14 20 8 -6 49 -12 92 -13z m441 -30 c15 -7 29 -13 31 -14 1
-1 -19 -24 -46 -52 -52 -54 -85 -69 -129 -57 l-28 8 31 8 c17 5 39 18 50 30
l19 22 -32 -17 c-79 -40 -112 -3 -48 53 28 25 45 31 80 31 24 0 57 -5 72 -12z
m-687 -93 c33 -17 56 -43 70 -79 11 -30 5 -86 -9 -86 -11 0 -44 31 -64 60 -24
34 -21 8 4 -41 l20 -40 -23 12 c-36 20 -57 51 -63 99 -3 25 -8 57 -10 73 -4
25 -3 27 23 21 15 -4 38 -12 52 -19z m588 -190 c12 -4 22 -9 22 -11 0 -10 -94
-126 -117 -144 -29 -22 -83 -24 -90 -3 -3 7 15 32 38 58 52 56 43 59 -16 4
-40 -37 -45 -39 -45 -20 0 82 112 145 208 116z m-719 -26 c29 -83 -6 -187 -65
-195 -17 -3 -19 51 -4 91 16 42 -9 19 -30 -28 l-19 -41 -7 28 c-3 15 -1 39 5
53 13 27 92 122 103 123 3 0 11 -14 17 -31z m1132 4 c20 -53 -11 -136 -53
-139 -16 -2 -16 1 -2 30 14 29 14 30 -2 9 -22 -30 -44 -29 -44 1 0 23 67 126
83 126 4 0 12 -12 18 -27z m-197 -37 c34 -14 76 -59 76 -82 0 -17 -53 -19 -83
-2 -20 10 -21 10 -7 -6 8 -10 26 -22 40 -28 21 -8 23 -11 9 -18 -37 -21 -88 5
-129 65 -17 25 -36 45 -41 45 -21 0 3 20 34 29 46 13 63 13 101 -3z m-1146
-129 c22 -15 13 -26 -18 -22 -39 5 -38 -3 0 -17 17 -5 29 -15 28 -20 -2 -5 -7
-9 -12 -8 -5 1 -12 -4 -16 -10 -5 -8 -16 -9 -31 -4 -13 4 -27 7 -31 6 -5 -1
-8 3 -8 9 0 5 -4 7 -10 4 -5 -3 -10 -2 -10 4 0 6 -12 14 -27 17 l-26 7 22 18
c13 11 27 16 32 13 5 -3 9 -1 9 5 0 11 79 10 98 -2z m1392 -27 c3 -1 8 -2 13
-1 4 0 7 -3 7 -8 0 -5 8 -12 18 -15 9 -3 29 -28 44 -55 l28 -49 -83 -4 c-92
-5 -139 7 -157 42 -16 30 -2 38 62 33 28 -2 48 0 44 4 -9 9 -33 14 -78 16 -42
1 -47 9 -19 29 16 12 104 17 121 8z m-1345 -100 l30 -1 -40 -21 c-41 -21 -105
-76 -105 -90 0 -4 20 6 44 22 36 25 115 60 132 60 10 0 2 -66 -12 -95 -17 -37
-73 -85 -98 -85 -9 0 -16 -4 -16 -9 0 -6 -9 -8 -20 -6 -11 2 -20 1 -20 -3 0
-7 -81 -8 -87 -2 -2 1 -7 4 -13 5 -5 1 -12 4 -15 5 -3 1 -8 3 -12 4 -5 1 -17
7 -28 14 -18 11 -18 13 -4 22 9 5 38 41 64 79 51 74 109 114 155 105 8 -1 29
-3 45 -4z m1073 -166 c39 -19 72 -40 72 -45 0 -6 4 -8 9 -4 5 3 15 -1 23 -8 7
-8 21 -13 31 -11 53 7 -42 -90 -103 -106 -87 -23 -172 1 -242 68 -39 37 -47
57 -25 60 53 7 137 9 137 3 0 -4 7 -8 15 -8 8 0 15 4 15 9 0 11 -49 30 -60 23
-5 -3 -11 -1 -15 5 -9 14 -105 13 -105 -2 0 -6 -3 -8 -7 -5 -10 11 28 47 61
57 49 14 115 2 194 -36z"/>
<path d="M483 422 c-13 -2 -23 -10 -23 -18 0 -8 6 -14 13 -13 45 6 47 3 47
-86 0 -69 3 -85 15 -85 12 0 15 16 15 88 l0 89 30 -5 c23 -3 30 0 30 12 0 9
-8 16 -17 17 -68 3 -91 4 -110 1z"/>
<path d="M659 423 c-8 -52 -2 -188 8 -202 10 -13 12 -8 13 37 l0 52 50 0 c53
0 54 -1 50 -62 -1 -20 3 -28 14 -28 14 0 16 16 16 100 0 78 -3 100 -14 100 -8
0 -13 -11 -14 -27 0 -65 1 -63 -52 -63 l-50 0 0 44 c0 25 -4 48 -10 51 -5 3
-11 3 -11 -2z"/>
<path d="M884 421 c-9 -9 -3 -200 6 -203 20 -6 120 4 120 13 0 5 -22 9 -50 9
l-50 0 0 35 0 35 50 0 c28 0 50 5 50 10 0 6 -22 10 -50 10 -49 0 -50 1 -50 30
0 32 7 35 73 30 19 -1 27 3 27 14 0 9 -9 17 -20 17 -56 4 -102 4 -106 0z"/>
<path d="M1054 421 c-9 -10 -3 -32 9 -30 45 6 47 3 47 -86 0 -69 3 -85 15 -85
12 0 15 16 15 85 0 89 0 89 48 85 14 -1 22 4 22 14 0 9 -3 16 -7 17 -44 3
-145 3 -149 0z"/>
<path d="M1240 408 c0 -13 8 -18 30 -18 l30 0 0 -85 c0 -69 3 -85 15 -85 12 0
15 16 15 85 l0 85 30 0 c32 0 44 29 13 31 -130 5 -133 4 -133 -13z"/>
<path d="M1440 326 c0 -64 4 -106 10 -106 6 0 10 40 10 99 0 56 -4 103 -10
106 -6 4 -10 -32 -10 -99z"/>
<path d="M1536 423 c-3 -4 -6 -51 -6 -105 0 -79 3 -98 15 -98 11 0 15 18 17
78 l3 77 45 -77 c65 -112 80 -108 80 22 0 121 -18 135 -22 18 l-3 -82 -50 82
c-48 78 -66 98 -79 85z"/>
<path d="M1632 94 c-18 -20 -15 -33 13 -46 26 -12 34 -38 12 -38 -7 0 -19 6
-26 12 -11 11 -13 10 -9 -2 6 -21 42 -24 58 -4 12 14 12 18 -5 30 -10 8 -25
14 -32 14 -7 0 -13 4 -13 9 0 17 20 23 35 11 8 -7 15 -8 15 -4 0 5 -8 14 -18
20 -13 9 -20 8 -30 -2z"/>
<path d="M210 49 l0 -50 33 3 c29 3 32 6 33 38 1 43 -11 60 -42 60 -22 0 -24
-4 -24 -51z m60 21 c0 -5 -9 -10 -20 -10 -11 0 -20 5 -20 10 0 6 9 10 20 10
11 0 20 -4 20 -10z m-11 -29 c16 -10 6 -31 -15 -31 -8 0 -14 9 -14 20 0 22 7
25 29 11z"/>
<path d="M331 65 c0 -23 4 -46 11 -53 20 -20 48 -14 58 14 13 33 13 74 0 74
-5 0 -10 -18 -10 -40 0 -27 -5 -43 -15 -47 -22 -8 -28 1 -36 50 l-6 42 -2 -40z"/>
<path d="M473 93 c-23 -9 -15 -42 12 -49 30 -7 34 -34 5 -34 -11 0 -20 5 -20
10 0 6 -5 10 -11 10 -8 0 -8 -5 1 -15 17 -20 49 -19 57 1 6 16 -12 37 -41 47
-8 3 -7 8 1 17 10 11 16 11 30 -1 16 -13 17 -12 4 4 -14 18 -18 19 -38 10z"/>
<path d="M570 50 c0 -27 5 -50 10 -50 6 0 10 23 10 50 0 28 -4 50 -10 50 -5 0
-10 -22 -10 -50z"/>
<path d="M640 50 c0 -27 4 -50 9 -50 5 0 8 16 7 35 -4 42 6 45 23 9 6 -15 14
-24 17 -22 7 7 -36 78 -47 78 -5 0 -9 -22 -9 -50z"/>
<path d="M709 55 c-5 -50 -4 -63 7 -53 3 3 4 28 2 54 l-3 49 -6 -50z"/>
<path d="M780 50 l0 -50 33 1 c30 2 30 2 5 6 -35 5 -37 33 -3 33 14 0 25 5 25
10 0 6 -11 10 -25 10 -14 0 -25 5 -25 10 0 6 11 10 25 10 14 0 25 5 25 10 0 6
-13 10 -30 10 -29 0 -30 -1 -30 -50z"/>
<path d="M903 93 c-23 -9 -14 -40 12 -47 30 -8 34 -36 5 -36 -11 0 -20 5 -20
10 0 6 -5 10 -11 10 -8 0 -7 -5 1 -15 18 -22 54 -15 58 11 2 16 -4 23 -22 28
-15 3 -26 11 -26 16 0 16 21 22 35 10 9 -7 15 -8 15 -2 0 8 -26 25 -33 21 -1
0 -8 -3 -14 -6z"/>
<path d="M1012 88 c-18 -18 -15 -26 19 -44 23 -12 28 -19 20 -27 -9 -9 -17 -8
-32 2 -18 10 -20 10 -17 -1 3 -7 18 -13 34 -13 39 0 45 30 10 46 -14 7 -26 18
-26 26 0 15 16 17 25 3 3 -5 12 -10 18 -10 7 0 3 7 -7 15 -24 18 -29 18 -44 3z"/>
<path d="M1196 60 c-18 -45 -21 -75 -5 -48 12 22 49 24 49 3 0 -8 4 -15 9 -15
11 0 -16 87 -29 95 -4 3 -15 -13 -24 -35z m34 -12 c0 -5 -6 -8 -14 -8 -9 0
-12 7 -9 21 4 16 8 17 14 7 5 -7 9 -16 9 -20z"/>
<path d="M1310 50 c0 -46 2 -50 23 -50 31 0 47 18 47 52 0 21 -6 31 -26 38
-41 16 -44 13 -44 -40z m57 14 c8 -20 -8 -48 -31 -52 -12 -3 -16 4 -16 32 0
30 4 36 20 36 11 0 23 -7 27 -16z"/>
<path d="M1439 53 c10 -27 22 -47 27 -46 11 2 46 93 35 93 -5 0 -14 -21 -22
-47 l-13 -48 -15 48 c-8 26 -18 47 -23 47 -4 0 1 -21 11 -47z"/>
<path d="M1550 50 c0 -27 5 -50 10 -50 6 0 10 23 10 50 0 28 -4 50 -10 50 -5
0 -10 -22 -10 -50z"/>
<path d="M1750 80 c-23 -23 -24 -33 -10 -61 14 -25 56 -25 70 0 14 27 13 47
-6 65 -20 21 -30 20 -54 -4z m54 -16 c9 -22 -13 -56 -32 -52 -21 4 -29 57 -11
68 16 10 36 3 43 -16z"/>
<path d="M1871 48 c1 -29 4 -43 6 -30 6 29 43 31 43 2 0 -11 4 -20 8 -20 4 0
8 18 7 41 -1 41 -15 59 -47 59 -15 0 -18 -9 -17 -52z m49 17 c0 -8 -9 -15 -20
-15 -11 0 -20 7 -20 15 0 8 9 15 20 15 11 0 20 -7 20 -15z"/>
</g>
</svg>
